<svg xmlns="http://www.w3.org/2000/svg" viewBox="0 0 48 48" fill="none">
  <!-- YNA Grocery favicon — green squircle, white paper bag, orange leaf -->
  <rect width="48" height="48" rx="14" fill="#22c55e"/>
  <path d="M15 20.5h18l-1.2 16.2a2.2 2.2 0 0 1-2.2 2H18.4a2.2 2.2 0 0 1-2.2-2L15 20.5Z" stroke="#fff" stroke-width="2.4" stroke-linejoin="round" fill="none"/>
  <path d="M15.5 20.5h17" stroke="#fff" stroke-width="2.4" stroke-linecap="round"/>
  <path d="M19.5 20.5c0-3.2 1.6-5.5 4.5-5.5s4.5 2.3 4.5 5.5" stroke="#fff" stroke-width="2.4" stroke-linecap="round" fill="none"/>
  <path d="M31.2 12.2c3.4 1.1 5.2 3.6 4.6 6.6-2.8.8-5.6-.6-6.8-3.4 1.1-1.6 1.5-2.5 2.2-3.2Z" fill="#ff6b35" stroke="#fff" stroke-width="1.4" stroke-linejoin="round"/>
  <path d="M29.8 15.2c1.1 1.4 2.6 2.4 4.4 2.8" stroke="#fff" stroke-width="1.2" stroke-linecap="round" fill="none"/>
</svg>
